# xmcd CD database file
#
# Track frame offsets:
#	150
#	28377
#	55589
#	74070
#	100975
#	122014
#	168320
#	193466
#	214416
#	230073
#	255150
#
# Disc length: 3497 seconds
#
# Revision: 0
# Processed by: cddbd v1.5.1PL0 Copyright (c) Steve Scherf et al.
# Submitted via: CDex 1.51
#
DISCID=a80da70b
DTITLE=KEEPINTIME - Remixes
DYEAR=2004
DGENRE=Rhythmic Soul
TTITLE0=Keepintime Theme - Charlie Dark
TTITLE1=Infinity of Rhythm Remix - Ammoncontact
TTITLE2=Bring Madlib Up - DJ Shadow
TTITLE3=Bumpin Time! (Sistema Local Mexmix Version) - King Ruly and Toy Selectah!
TTITLE4=A Peek in Time - Cut Chemist
TTITLE5=King's on time Mix - King Britt
TTITLE6=Song For Sophia - You Can Know Her - NOBODY
TTITLE7=From SP On My 303 - DJ Nutts
TTITLE8=All Lights on that Stage - Daedelus
TTITLE9=Dirty Fingered B-Boy Edit - J. Rocc
TTITLE10=Roy's Theme - DJ Shadow
EXTD=YEAR: 2004
EXTT0=
EXTT1=
EXTT2=
EXTT3=
EXTT4=
EXTT5=
EXTT6=
EXTT7=
EXTT8=
EXTT9=
EXTT10=
PLAYORDER=
